<?xml version="1.0" encoding="utf-8"?>
<!-- Generator: Adobe Illustrator 16.0.0, SVG Export Plug-In . SVG Version: 6.00 Build 0)  -->
<!DOCTYPE svg PUBLIC "-//W3C//DTD SVG 1.1//EN" "http://www.w3.org/Graphics/SVG/1.1/DTD/svg11.dtd">
<svg version="1.1" id="Layer_1" xmlns="http://www.w3.org/2000/svg" xmlns:xlink="http://www.w3.org/1999/xlink" x="0px" y="0px"
	 width="138.086px" height="30.813px" viewBox="0 0 138.086 30.813" enable-background="new 0 0 138.086 30.813"
	 xml:space="preserve">
<g>
	<defs>
		<rect id="SVGID_1_" width="138.086" height="30.813"/>
	</defs>
	<clipPath id="SVGID_2_">
		<use xlink:href="#SVGID_1_"  overflow="visible"/>
	</clipPath>
	<path clip-path="url(#SVGID_2_)" fill="#FFFFFF" d="M64.535,21.347L64.535,21.347c1.367,1.367,1.381,3.591,0.014,4.958
		c-2.787,2.785-6.635,4.508-10.886,4.508c-8.835,0-15.932-7.437-15.376-16.39C38.764,6.736,45.032,0.486,52.72,0.028
		c4.615-0.275,8.822,1.484,11.812,4.464c1.376,1.371,1.378,3.599,0.005,4.972c-1.367,1.367-3.519,1.305-4.949,0.005
		c-1.547-1.408-3.609-2.26-5.925-2.26c-4.751,0-8.322,3.748-8.127,8.542c0.172,4.243,3.37,7.577,7.608,7.832
		c2.515,0.151,4.803-0.61,6.431-2.233C60.947,19.98,63.166,19.977,64.535,21.347"/>
	<path clip-path="url(#SVGID_2_)" fill="#FFFFFF" d="M84.423,0.001c-8.508,0-15.405,6.897-15.405,15.406
		c0,8.508,6.897,15.406,15.405,15.406c8.509,0,15.406-6.897,15.406-15.406C99.829,6.898,92.932,0.001,84.423,0.001 M84.396,23.551
		c-4.5,0-8.149-3.648-8.149-8.149c0-4.5,3.649-8.148,8.149-8.148s8.148,3.648,8.148,8.148
		C92.545,19.903,88.896,23.551,84.396,23.551"/>
	<path clip-path="url(#SVGID_2_)" fill="#FFFFFF" d="M24.533,29.732L24.533,29.732c-1.442-1.441-1.378-3.75,0.06-5.197
		c1.818-1.829,2.941-4.349,2.941-7.132c0-5.762-4.811-10.476-10.635-10.194c-5.186,0.251-9.425,4.615-9.62,9.804
		c-0.11,2.941,1.035,5.613,2.941,7.528c1.436,1.443,1.492,3.752,0.051,5.192c-1.386,1.387-3.656,1.46-5.056,0.086
		c-3.473-3.406-5.524-8.257-5.177-13.581C0.601,7.595,7.643,0.573,16.289,0.034c10.116-0.63,18.517,7.389,18.517,17.369
		c0,4.812-1.953,9.163-5.109,12.313C28.268,31.141,25.96,31.16,24.533,29.732"/>
	<path clip-path="url(#SVGID_2_)" fill="#FFFFFF" d="M127.813,29.732L127.813,29.732c-1.442-1.441-1.378-3.75,0.061-5.197
		c1.817-1.829,2.94-4.349,2.94-7.132c0-5.762-4.811-10.476-10.635-10.194c-5.187,0.251-9.425,4.615-9.62,9.804
		c-0.11,2.941,1.035,5.613,2.941,7.528c1.436,1.443,1.491,3.752,0.051,5.192c-1.386,1.387-3.656,1.46-5.057,0.086
		c-3.473-3.406-5.523-8.257-5.177-13.581c0.563-8.644,7.605-15.666,16.251-16.205c10.116-0.63,18.518,7.389,18.518,17.369
		c0,4.812-1.953,9.163-5.109,12.313C131.548,31.141,129.239,31.16,127.813,29.732"/>
	<path clip-path="url(#SVGID_2_)" fill="#FFFFFF" d="M53.471,19.016c-2.002,0-3.624-1.623-3.624-3.624
		c0-2.002,1.622-3.625,3.624-3.625s3.624,1.623,3.624,3.625C57.095,17.393,55.473,19.016,53.471,19.016"/>
</g>
</svg>
