<svg id="Camada_1" data-name="Camada 1" xmlns="http://www.w3.org/2000/svg" xmlns:xlink="http://www.w3.org/1999/xlink" viewBox="0 0 138.09 30.81"><defs><style>.cls-1{fill:url(#Gradiente_sem_nome_19);}.cls-2{fill:url(#Gradiente_sem_nome_19-2);}.cls-3{fill:url(#Gradiente_sem_nome_19-4);}.cls-4{fill:url(#Gradiente_sem_nome_19-5);}</style><linearGradient id="Gradiente_sem_nome_19" x1="172.33" y1="543.29" x2="43.67" y2="543.29" gradientUnits="userSpaceOnUse"><stop offset="0" stop-color="#02cbc4"/><stop offset="1" stop-color="#00a6dd"/></linearGradient><linearGradient id="Gradiente_sem_nome_19-2" x1="172.33" y1="543.29" x2="43.67" y2="543.29" xlink:href="#Gradiente_sem_nome_19"/><linearGradient id="Gradiente_sem_nome_19-4" x1="172.36" y1="543.29" x2="43.7" y2="543.29" xlink:href="#Gradiente_sem_nome_19"/><linearGradient id="Gradiente_sem_nome_19-5" x1="138.06" y1="15.39" x2="9.4" y2="15.39" xlink:href="#Gradiente_sem_nome_19"/></defs><title>Logo_Neon_Degrade</title><path class="cls-1" d="M98.81,549.23h0a3.51,3.51,0,0,1,0,5,15.41,15.41,0,1,1,0-21.81,3.51,3.51,0,0,1,0,5h0a3.56,3.56,0,0,1-4.95,0,8.73,8.73,0,0,0-5.93-2.26,8.2,8.2,0,0,0-.52,16.37,8.22,8.22,0,0,0,6.43-2.23A3.51,3.51,0,0,1,98.81,549.23Z" transform="translate(-34.27 -527.88)"/><path class="cls-2" d="M118.7,527.88a15.41,15.41,0,1,0,15.41,15.41A15.41,15.41,0,0,0,118.7,527.88Zm0,23.55a8.15,8.15,0,1,1,8.15-8.15A8.15,8.15,0,0,1,118.67,551.43Z" transform="translate(-34.27 -527.88)"/><path class="cls-1" d="M58.81,557.61h0a3.67,3.67,0,0,1,.06-5.2,10.09,10.09,0,0,0,2.94-7.13,10.13,10.13,0,0,0-20.26-.39,10.09,10.09,0,0,0,2.94,7.53,3.66,3.66,0,0,1,.05,5.19h0a3.61,3.61,0,0,1-5.06.09A17.4,17.4,0,1,1,64,557.6,3.65,3.65,0,0,1,58.81,557.61Z" transform="translate(-34.27 -527.88)"/><path class="cls-3" d="M162.09,557.61h0a3.67,3.67,0,0,1,.06-5.2,10.09,10.09,0,0,0,2.94-7.13,10.13,10.13,0,0,0-20.26-.39,10.09,10.09,0,0,0,2.94,7.53,3.66,3.66,0,0,1,.05,5.19h0a3.61,3.61,0,0,1-5.06.09,17.4,17.4,0,1,1,24.48-.1A3.65,3.65,0,0,1,162.09,557.61Z" transform="translate(-34.27 -527.88)"/><circle class="cls-4" cx="53.47" cy="15.39" r="3.62"/></svg>