<svg xmlns="http://www.w3.org/2000/svg" viewBox="0 0 72.93 72.43"><defs><style>.cls-1{fill:#fff;}</style></defs><title>FacebookAsset 1</title><g id="Layer_2" data-name="Layer 2"><g id="Layer_1-2" data-name="Layer 1"><path class="cls-1" d="M72.93,36.47A36.45,36.45,0,0,1,44.58,72V41.69h8.76V31.58H44.49V29.32c0-4.34,1.9-7.86,6.41-7.86a14.75,14.75,0,0,1,4.43.64l.54-10.57a26.34,26.34,0,0,0-7.32-.91c-4,0-8.76,1.18-12.19,4.43-4,3.62-5.6,9.48-5.6,14.81v1.72H25V41.69h5.78V72.43a36.44,36.44,0,1,1,42.16-36Zm0,0"/></g></g></svg>