<svg xmlns="http://www.w3.org/2000/svg" viewBox="0 0 777.28 242.56"><defs><style>.cls-1{fill:#fff;}.cls-2{fill:#f2f2f2;}</style></defs><title>Asset 5</title><g id="Layer_2" data-name="Layer 2"><g id="Layer_1-2" data-name="Layer 1"><g id="LOGO"><path class="cls-1" d="M148.58,44.77,79.34,113.22a4.94,4.94,0,0,1-4,1.34,5,5,0,0,1-4-1.34L30.59,72.88a4.78,4.78,0,0,1,0-6.7L42.78,54.11a4.93,4.93,0,0,1,6.82,0L75.07,79.22l56.26-58.13a77.82,77.82,0,1,0,17.24,23.67Z"/><path class="cls-1" d="M187.53,63.55h-9.46V54.63h9.46v-6q0-11.72,6-17.71,5.33-5.33,14.78-5.33a41.35,41.35,0,0,1,6.19.4,26.41,26.41,0,0,1,5.13,1.33v8.92q-2.8-.8-5.06-1.26a24.48,24.48,0,0,0-4.93-.47q-12,0-12,14.65v5.59h21.84v8.79H197.78v59.8H187.53Zm45.28-35.43h11.72V39.44H232.81Zm.8,26.37h10.12v68.86H233.61Z"/><path class="cls-1" d="M323,109.5a53.61,53.61,0,0,1-4.73,5.86,32.3,32.3,0,0,1-5.79,4.93,26.89,26.89,0,0,1-7.12,3.33,29.83,29.83,0,0,1-8.72,1.2,31.7,31.7,0,0,1-12.12-2.4,32.27,32.27,0,0,1-10.52-7,34.27,34.27,0,0,1-7.46-11.19,38.4,38.4,0,0,1-2.8-15.12v-.27a38.54,38.54,0,0,1,2.8-15A34.14,34.14,0,0,1,274,62.55a33.25,33.25,0,0,1,10.52-7.06A31,31,0,0,1,296.61,53a30.51,30.51,0,0,1,8.79,1.2,29.5,29.5,0,0,1,7.19,3.2,31,31,0,0,1,5.79,4.66,41.58,41.58,0,0,1,4.6,5.59V54.49h10.26v90.17H323Zm-24.51,6.13a23.08,23.08,0,0,0,9.26-1.93,25.6,25.6,0,0,0,8-5.46,26.22,26.22,0,0,0,5.59-8.39A27.52,27.52,0,0,0,323.38,89v-.27a27.53,27.53,0,0,0-2.06-10.86,25.51,25.51,0,0,0-5.59-8.32,26.23,26.23,0,0,0-8-5.39,23.1,23.1,0,0,0-9.26-1.93A24.73,24.73,0,0,0,289,64a22.09,22.09,0,0,0-7.66,5.19,25,25,0,0,0-5.19,8.32,30.46,30.46,0,0,0-1.93,11.19V89A30.06,30.06,0,0,0,276.16,100a25.16,25.16,0,0,0,5.26,8.39,23.11,23.11,0,0,0,7.73,5.33A23.6,23.6,0,0,0,298.47,115.62Z"/><path class="cls-1" d="M381.44,124.81a29,29,0,0,1-11.12-2,23,23,0,0,1-8.26-5.66,24.91,24.91,0,0,1-5.19-8.72,33.22,33.22,0,0,1-1.8-11.19V54.49h10.25V94.63q0,9.57,4.93,15.15t14.12,5.58a21.71,21.71,0,0,0,8.19-1.53,18.42,18.42,0,0,0,6.53-4.39,21.2,21.2,0,0,0,4.33-6.84,23.34,23.34,0,0,0,1.6-8.77V54.49h10.12v68.86H405v-12a32.4,32.4,0,0,1-9.06,9.52Q390.37,124.81,381.44,124.81Z"/><path class="cls-1" d="M444.31,93.12a27.5,27.5,0,0,0,2.66,9.72,23.31,23.31,0,0,0,5.46,7.19,23.58,23.58,0,0,0,7.46,4.46,24.67,24.67,0,0,0,8.66,1.53,26.41,26.41,0,0,0,12.32-2.66,36.51,36.51,0,0,0,9.39-7.06l6.39,5.73a42.09,42.09,0,0,1-11.85,9.39q-6.66,3.53-16.52,3.53a34.4,34.4,0,0,1-13.32-2.6A32.79,32.79,0,0,1,444,115a34.74,34.74,0,0,1-7.39-11.39A38.25,38.25,0,0,1,433.92,89a39.77,39.77,0,0,1,2.46-14.05,35.31,35.31,0,0,1,6.86-11.45,32,32,0,0,1,10.46-7.66,33.23,33.23,0,0,1,26.84.07,29.79,29.79,0,0,1,10.12,7.79,34,34,0,0,1,6.26,11.59A46.52,46.52,0,0,1,499,89.52v1.53a19.27,19.27,0,0,1-.13,2.06Zm44.35-8.39a32.23,32.23,0,0,0-2-8.8,24.78,24.78,0,0,0-4.33-7.35,19.8,19.8,0,0,0-6.66-5,20.83,20.83,0,0,0-9-1.85,20.07,20.07,0,0,0-8.26,1.72,21,21,0,0,0-6.79,4.83,26.84,26.84,0,0,0-4.86,7.35,29.55,29.55,0,0,0-2.46,9.13Z"/><path class="cls-1" d="M532.75,124.55a30.17,30.17,0,0,1-9.59-1.46,22.58,22.58,0,0,1-7.66-4.26,19.57,19.57,0,0,1-5.13-6.93,23.05,23.05,0,0,1-1.87-9.59V102a22.33,22.33,0,0,1,2.06-9.86,19.34,19.34,0,0,1,5.73-7.06,26.09,26.09,0,0,1,8.86-4.26,42.65,42.65,0,0,1,11.59-1.47,52.18,52.18,0,0,1,9.66.87,54.76,54.76,0,0,1,7.66,1.93V81q0-5.59-3.53-8.66t-10.85-3.06a46.72,46.72,0,0,0-10.39,1.07,68,68,0,0,0-9.46,2.93l-5.19-17.85a79.29,79.29,0,0,1,13-4.06,75.12,75.12,0,0,1,16.18-1.53,52,52,0,0,1,16.45,2.26,27.79,27.79,0,0,1,11,6.53,22.83,22.83,0,0,1,5.93,9.66A43.88,43.88,0,0,1,579,81.53v41.42h-25v-7.46a26.88,26.88,0,0,1-21.18,9.06Zm9.06-15.85a12.83,12.83,0,0,0,9.06-3.2,11.21,11.21,0,0,0,3.46-8.66V93.52a23.31,23.31,0,0,0-4.46-1.33,26.9,26.9,0,0,0-5.39-.53q-5.59,0-8.59,2.46a8,8,0,0,0-3,6.46v.27a7.05,7.05,0,0,0,2.53,5.79A9.77,9.77,0,0,0,541.81,108.7Z"/><path class="cls-1" d="M589.36,106.26l33.3-35.38h-32.1v-20h65.66V67.59L622.79,103h33.43v20H589.36Z"/><path class="cls-1" d="M691,124.55q-11.65,0-18.14-7.06T666.34,98V50.9h25.44v39q0,6,2.76,9.06A9.42,9.42,0,0,0,701.9,102,9.89,9.89,0,0,0,709.33,99q3-3.06,3-9.06v-39h25.44v72.05H712.29v-9.86a35.37,35.37,0,0,1-8.55,8A22.3,22.3,0,0,1,691,124.55Z"/><path class="cls-1" d="M751.84,25.72h25.44v97.23H751.84Z"/></g><path class="cls-2" d="M24.28,234.11a19.53,19.53,0,0,1-14.25-6,19.83,19.83,0,0,1-4.14-6.54,21.76,21.76,0,0,1-1.48-8.05v-.11a21.25,21.25,0,0,1,1.51-8,20.91,20.91,0,0,1,4.17-6.6,19.33,19.33,0,0,1,14.31-6.08,23.64,23.64,0,0,1,4.85.46,18.91,18.91,0,0,1,4,1.31,21.13,21.13,0,0,1,3.48,2,33.29,33.29,0,0,1,3.17,2.6l-2.11,2.17A32.21,32.21,0,0,0,35.08,199,17.2,17.2,0,0,0,32,197.12a18.08,18.08,0,0,0-3.54-1.23,17.86,17.86,0,0,0-4.14-.46,16.2,16.2,0,0,0-12,5.17,17.91,17.91,0,0,0-3.54,5.68,19,19,0,0,0-1.29,7v.11a18.8,18.8,0,0,0,1.31,7.05,18.24,18.24,0,0,0,3.57,5.71A16.52,16.52,0,0,0,17.71,230a16,16,0,0,0,6.68,1.4,16.67,16.67,0,0,0,7.54-1.6,24.18,24.18,0,0,0,6.23-4.63l2,1.94A37.47,37.47,0,0,1,36.88,230a20.38,20.38,0,0,1-3.6,2.2,20,20,0,0,1-4.14,1.43A21.58,21.58,0,0,1,24.28,234.11Z"/><path class="cls-2" d="M60.61,234.11a14.31,14.31,0,0,1-6-1.23,15.28,15.28,0,0,1-4.71-3.28,14.79,14.79,0,0,1-3.11-4.8A15.33,15.33,0,0,1,45.7,219v-.11A15.29,15.29,0,0,1,50,208.17a15.11,15.11,0,0,1,4.77-3.34,14.51,14.51,0,0,1,6-1.23,14.31,14.31,0,0,1,6,1.23,15.34,15.34,0,0,1,4.71,3.28,14.81,14.81,0,0,1,3.11,4.8,15.32,15.32,0,0,1,1.11,5.83v.11a15.29,15.29,0,0,1-4.26,10.68,15.08,15.08,0,0,1-4.77,3.34A14.51,14.51,0,0,1,60.61,234.11Zm.11-2.68a11.53,11.53,0,0,0,4.79-1,11.76,11.76,0,0,0,3.79-2.67,12.15,12.15,0,0,0,2.47-4,13.17,13.17,0,0,0,.89-4.83v-.11a13.15,13.15,0,0,0-.92-4.92,12.31,12.31,0,0,0-2.55-4,11.85,11.85,0,0,0-3.85-2.67,11.7,11.7,0,0,0-4.73-1,11.54,11.54,0,0,0-4.79,1A11.78,11.78,0,0,0,52,210a12.15,12.15,0,0,0-2.47,4,13.15,13.15,0,0,0-.89,4.83v.11a13.15,13.15,0,0,0,.92,4.92,12.33,12.33,0,0,0,2.55,4A11.86,11.86,0,0,0,56,230.46,11.68,11.68,0,0,0,60.72,231.42Z"/><path class="cls-2" d="M84.26,204.29h2.8v5.43a13.57,13.57,0,0,1,4-4.34,11.07,11.07,0,0,1,6.51-1.77,12.92,12.92,0,0,1,4.91.89,10.26,10.26,0,0,1,6,6.28,14.52,14.52,0,0,1,.77,4.83v17.82h-2.8V216.11a10.51,10.51,0,0,0-2.4-7.23,8.67,8.67,0,0,0-6.85-2.71,10.19,10.19,0,0,0-4,.77,9.94,9.94,0,0,0-3.2,2.14,9.72,9.72,0,0,0-2.14,3.28,11.13,11.13,0,0,0-.77,4.2v16.85h-2.8Z"/><path class="cls-2" d="M129,233.94a10.83,10.83,0,0,1-3.2-.46,6.71,6.71,0,0,1-4.34-4,9.26,9.26,0,0,1-.63-3.57V206.86h-4.23v-2.57h4.23V195h2.8v9.31h10.22v2.57H123.61v18.75q0,3.14,1.63,4.39a6.69,6.69,0,0,0,4.2,1.25,9.43,9.43,0,0,0,2.06-.22,12.83,12.83,0,0,0,2.23-.75v2.63a12.14,12.14,0,0,1-2.26.77A11,11,0,0,1,129,233.94Z"/><path class="cls-2" d="M154.43,234.11A14.09,14.09,0,0,1,149,233a13.87,13.87,0,0,1-4.58-3.08,14.58,14.58,0,0,1-3.12-4.8,16.28,16.28,0,0,1-1.15-6.23v-.11a16.44,16.44,0,0,1,1.06-5.91,15.2,15.2,0,0,1,2.91-4.83,13.88,13.88,0,0,1,4.37-3.26,12.56,12.56,0,0,1,5.48-1.2,12.72,12.72,0,0,1,5.54,1.17,12.48,12.48,0,0,1,4.2,3.23,14.72,14.72,0,0,1,2.69,4.83,18.61,18.61,0,0,1,.94,6v.6a3.56,3.56,0,0,1-.06.54H143.09a12.69,12.69,0,0,0,1.2,4.83,12.52,12.52,0,0,0,2.58,3.58,10.62,10.62,0,0,0,3.52,2.25,11.38,11.38,0,0,0,4.15.77,11.86,11.86,0,0,0,5.81-1.31,17.12,17.12,0,0,0,4.21-3.26l1.94,1.71a20.3,20.3,0,0,1-5.06,4A14.31,14.31,0,0,1,154.43,234.11Zm9.91-16.62a16.61,16.61,0,0,0-.89-4.26,11.87,11.87,0,0,0-2-3.6,9.59,9.59,0,0,0-3.18-2.51,10.44,10.44,0,0,0-8.48-.09,10.19,10.19,0,0,0-3.29,2.37,12.85,12.85,0,0,0-2.32,3.6,13.45,13.45,0,0,0-1.09,4.48Z"/><path class="cls-2" d="M186.56,234.11a12.91,12.91,0,0,1-4.91-.89,10.26,10.26,0,0,1-6-6.28,14.49,14.49,0,0,1-.77-4.83V204.29h2.8V221.6a10.51,10.51,0,0,0,2.4,7.23,8.66,8.66,0,0,0,6.85,2.71,10.24,10.24,0,0,0,4-.77,9.86,9.86,0,0,0,3.23-2.14,9.72,9.72,0,0,0,2.14-3.29,11.14,11.14,0,0,0,.77-4.2V204.29h2.8v29.13h-2.8V228a13.59,13.59,0,0,1-4,4.34A11.07,11.07,0,0,1,186.56,234.11Zm4.46-42,3.48,1.71-6.11,5.88H186Z"/><path class="cls-2" d="M222.77,234.11a13.67,13.67,0,0,1-5.17-1,14,14,0,0,1-4.54-3,14.71,14.71,0,0,1-3.23-4.77,15.82,15.82,0,0,1-1.23-6.37v-.11a15.82,15.82,0,0,1,1.23-6.37,15.07,15.07,0,0,1,3.23-4.8,14.16,14.16,0,0,1,4.54-3,13.62,13.62,0,0,1,9.17-.49,12.76,12.76,0,0,1,3.28,1.54,14.83,14.83,0,0,1,2.63,2.23,20.79,20.79,0,0,1,2.08,2.63V191.72h2.8v41.7h-2.8v-6.51a26.73,26.73,0,0,1-2.14,2.74,13.38,13.38,0,0,1-5.88,3.86A12.51,12.51,0,0,1,222.77,234.11Zm.26-2.68a11.22,11.22,0,0,0,4.44-.91,12,12,0,0,0,3.81-2.57,12.71,12.71,0,0,0,2.66-3.94,12.52,12.52,0,0,0,1-5.08v-.11a12.73,12.73,0,0,0-1-5.11,12.1,12.1,0,0,0-6.47-6.48,11.23,11.23,0,0,0-4.44-.91,11.73,11.73,0,0,0-4.49.86,10.58,10.58,0,0,0-3.64,2.46,11.44,11.44,0,0,0-2.43,3.91,14.5,14.5,0,0,0-.89,5.23v.11a14.16,14.16,0,0,0,.92,5.2,11.83,11.83,0,0,0,2.49,4,11.17,11.17,0,0,0,8,3.4Z"/><path class="cls-2" d="M261.1,234.11a14.31,14.31,0,0,1-6-1.23,15.28,15.28,0,0,1-4.71-3.28,14.79,14.79,0,0,1-3.11-4.8,15.33,15.33,0,0,1-1.11-5.83v-.11a15.29,15.29,0,0,1,4.26-10.68,15.11,15.11,0,0,1,4.77-3.34,14.51,14.51,0,0,1,6-1.23,14.31,14.31,0,0,1,6,1.23,15.34,15.34,0,0,1,4.71,3.28,14.81,14.81,0,0,1,3.11,4.8,15.32,15.32,0,0,1,1.11,5.83v.11a15.29,15.29,0,0,1-4.26,10.68,15.08,15.08,0,0,1-4.77,3.34A14.51,14.51,0,0,1,261.1,234.11Zm.11-2.68a11.53,11.53,0,0,0,4.79-1,11.76,11.76,0,0,0,3.79-2.67,12.15,12.15,0,0,0,2.47-4,13.17,13.17,0,0,0,.89-4.83v-.11a13.15,13.15,0,0,0-.92-4.92,12.31,12.31,0,0,0-2.55-4,11.85,11.85,0,0,0-3.85-2.67,11.7,11.7,0,0,0-4.73-1,11.54,11.54,0,0,0-4.79,1,11.78,11.78,0,0,0-3.79,2.67,12.15,12.15,0,0,0-2.47,4,13.15,13.15,0,0,0-.89,4.83v.11a13.15,13.15,0,0,0,.92,4.92,12.33,12.33,0,0,0,2.55,4,11.86,11.86,0,0,0,3.85,2.67A11.68,11.68,0,0,0,261.22,231.42Z"/><path class="cls-2" d="M301.88,204.29h2.8v6.51a20.25,20.25,0,0,1,2.11-2.74,14.45,14.45,0,0,1,2.66-2.29,13.58,13.58,0,0,1,3.26-1.57,12.47,12.47,0,0,1,4-.6,13.68,13.68,0,0,1,5.17,1,14,14,0,0,1,4.54,3,14.76,14.76,0,0,1,3.23,4.77,15.84,15.84,0,0,1,1.23,6.37v.11a15.83,15.83,0,0,1-1.23,6.37,15.1,15.1,0,0,1-3.23,4.8,14.18,14.18,0,0,1-4.54,3,13.63,13.63,0,0,1-9.17.49A12.67,12.67,0,0,1,309.4,232a14.77,14.77,0,0,1-2.63-2.23,20.6,20.6,0,0,1-2.08-2.63v15.42h-2.8Zm14.54,27.13a11.73,11.73,0,0,0,4.49-.86,10.57,10.57,0,0,0,3.64-2.46A11.45,11.45,0,0,0,327,224.2a14.51,14.51,0,0,0,.89-5.23v-.11a14.16,14.16,0,0,0-.92-5.2,11.83,11.83,0,0,0-2.49-4,11.16,11.16,0,0,0-8-3.4,11.24,11.24,0,0,0-4.44.91,12,12,0,0,0-3.81,2.57,12.71,12.71,0,0,0-2.66,3.94,12.54,12.54,0,0,0-1,5.08v.11a12.74,12.74,0,0,0,1,5.11,12.11,12.11,0,0,0,6.47,6.48A11.22,11.22,0,0,0,316.42,231.42Z"/><path class="cls-2" d="M348.44,234.11a14.73,14.73,0,0,1-4.06-.57,11.57,11.57,0,0,1-3.6-1.71,9.1,9.1,0,0,1-2.6-2.86,7.79,7.79,0,0,1-1-4v-.11a8.51,8.51,0,0,1,.94-4.06,8.64,8.64,0,0,1,2.6-3,12.1,12.1,0,0,1,4-1.83,20,20,0,0,1,5.2-.63,35.5,35.5,0,0,1,5.31.34,39.86,39.86,0,0,1,4.34.91v-1.25q0-4.43-2.54-6.65a10.39,10.39,0,0,0-7.05-2.21,17.33,17.33,0,0,0-4.91.66,24.18,24.18,0,0,0-4.23,1.69l-1-2.46a29.68,29.68,0,0,1,4.86-1.87,20,20,0,0,1,5.48-.7q6,0,9.2,3.2,3,3,3,8.23v18.16h-2.74v-4.86a14.46,14.46,0,0,1-1.8,2,12.31,12.31,0,0,1-2.43,1.77,14,14,0,0,1-6.91,1.74Zm.17-2.68a13.49,13.49,0,0,0,4.23-.65,11.62,11.62,0,0,0,3.51-1.82,8.76,8.76,0,0,0,2.4-2.82,7.58,7.58,0,0,0,.89-3.64v-3.3q-1.83-.46-4.28-.88a33.09,33.09,0,0,0-5.6-.43q-4.63,0-7.11,1.85a5.83,5.83,0,0,0-2.48,4.92v.11a5.66,5.66,0,0,0,.69,2.82,6.44,6.44,0,0,0,1.86,2.08,8.78,8.78,0,0,0,2.71,1.31A11.26,11.26,0,0,0,348.61,231.42Z"/><path class="cls-2" d="M372.37,204.29h2.8v8.28a16.42,16.42,0,0,1,2.17-3.6,14.36,14.36,0,0,1,3-2.83,12.64,12.64,0,0,1,3.63-1.77,13,13,0,0,1,4.14-.54v3.08h-.29a12.47,12.47,0,0,0-4.8.94,11.48,11.48,0,0,0-4,2.8,13.66,13.66,0,0,0-2.77,4.57,17.59,17.59,0,0,0-1,6.25v11.94h-2.8Z"/><path class="cls-2" d="M404.07,234.11a14.73,14.73,0,0,1-4.06-.57,11.57,11.57,0,0,1-3.6-1.71,9.1,9.1,0,0,1-2.6-2.86,7.79,7.79,0,0,1-1-4v-.11a8.5,8.5,0,0,1,.94-4.06,8.64,8.64,0,0,1,2.6-3,12.09,12.09,0,0,1,4-1.83,20,20,0,0,1,5.2-.63,35.49,35.49,0,0,1,5.31.34,40,40,0,0,1,4.34.91v-1.25q0-4.43-2.54-6.65a10.39,10.39,0,0,0-7.05-2.21,17.35,17.35,0,0,0-4.91.66,24.19,24.19,0,0,0-4.23,1.69l-1-2.46a29.63,29.63,0,0,1,4.85-1.87,20,20,0,0,1,5.48-.7q6,0,9.2,3.2,3,3,3,8.23v18.16h-2.74v-4.86a14.5,14.5,0,0,1-1.8,2,12.3,12.3,0,0,1-2.43,1.77,14,14,0,0,1-6.91,1.74Zm.17-2.68a13.5,13.5,0,0,0,4.23-.65,11.62,11.62,0,0,0,3.51-1.82,8.75,8.75,0,0,0,2.4-2.82,7.58,7.58,0,0,0,.88-3.64v-3.3q-1.83-.46-4.29-.88a33.07,33.07,0,0,0-5.6-.43q-4.63,0-7.11,1.85a5.83,5.83,0,0,0-2.48,4.92v.11a5.66,5.66,0,0,0,.69,2.82,6.46,6.46,0,0,0,1.86,2.08A8.78,8.78,0,0,0,401,231,11.26,11.26,0,0,0,404.24,231.42Z"/><path class="cls-2" d="M458,234.11a14.31,14.31,0,0,1-6-1.23,15.28,15.28,0,0,1-4.71-3.28,14.77,14.77,0,0,1-3.11-4.8,15.34,15.34,0,0,1-1.11-5.83v-.11a15.29,15.29,0,0,1,4.25-10.68,15.1,15.1,0,0,1,4.77-3.34,14.51,14.51,0,0,1,6-1.23,14.31,14.31,0,0,1,6,1.23,15.34,15.34,0,0,1,4.71,3.28,14.8,14.8,0,0,1,3.11,4.8,15.32,15.32,0,0,1,1.11,5.83v.11a15.3,15.3,0,0,1-4.26,10.68,15.07,15.07,0,0,1-4.77,3.34A14.51,14.51,0,0,1,458,234.11Zm.11-2.68a11.53,11.53,0,0,0,4.79-1,11.75,11.75,0,0,0,3.79-2.67,12.15,12.15,0,0,0,2.47-4,13.16,13.16,0,0,0,.89-4.83v-.11a13.15,13.15,0,0,0-.92-4.92,12.3,12.3,0,0,0-2.55-4,11.84,11.84,0,0,0-3.84-2.67,11.7,11.7,0,0,0-4.73-1,11.54,11.54,0,0,0-4.79,1,11.79,11.79,0,0,0-3.79,2.67,12.16,12.16,0,0,0-2.47,4,13.15,13.15,0,0,0-.89,4.83v.11a13.17,13.17,0,0,0,.92,4.92,12.32,12.32,0,0,0,2.55,4,11.86,11.86,0,0,0,3.85,2.67A11.68,11.68,0,0,0,458.16,231.42Z"/><path class="cls-2" d="M508.26,234a18.16,18.16,0,0,1-6.4-1.2,19.75,19.75,0,0,1-5.54-3.09l1.66-2.23a20,20,0,0,0,5,2.83,15.12,15.12,0,0,0,5.43,1,8.25,8.25,0,0,0,5-1.48,4.75,4.75,0,0,0,2-4v-.11a3.73,3.73,0,0,0-.63-2.17,5.8,5.8,0,0,0-1.71-1.6,11.21,11.21,0,0,0-2.46-1.14q-1.37-.46-2.91-.91-1.77-.51-3.57-1.08a14.26,14.26,0,0,1-3.23-1.45,7.5,7.5,0,0,1-2.31-2.19,5.67,5.67,0,0,1-.89-3.25v-.11a7.18,7.18,0,0,1,.71-3.22,7.92,7.92,0,0,1,2-2.54,9,9,0,0,1,3-1.68,12,12,0,0,1,3.88-.6,17.86,17.86,0,0,1,5.4.88,18.31,18.31,0,0,1,4.94,2.38l-1.49,2.34a19.35,19.35,0,0,0-4.31-2.11,14.19,14.19,0,0,0-4.66-.8,7.46,7.46,0,0,0-4.83,1.45,4.48,4.48,0,0,0-1.8,3.62v.11a3.3,3.3,0,0,0,.69,2.08,5.91,5.91,0,0,0,1.8,1.51,14.43,14.43,0,0,0,2.6,1.11q1.48.48,3,.94,1.77.51,3.48,1.11a13,13,0,0,1,3.08,1.54,7.76,7.76,0,0,1,2.2,2.25,6,6,0,0,1,.83,3.25v.11a7.73,7.73,0,0,1-2.91,6.18,9.94,9.94,0,0,1-3.2,1.71A12.65,12.65,0,0,1,508.26,234Z"/><path class="cls-2" d="M539.53,234.11a14.1,14.1,0,0,1-5.47-1.08,13.87,13.87,0,0,1-4.58-3.08,14.57,14.57,0,0,1-3.12-4.8,16.29,16.29,0,0,1-1.14-6.23v-.11a16.44,16.44,0,0,1,1.06-5.91,15.19,15.19,0,0,1,2.91-4.83,13.87,13.87,0,0,1,4.37-3.26,12.56,12.56,0,0,1,5.48-1.2,12.72,12.72,0,0,1,5.54,1.17,12.49,12.49,0,0,1,4.2,3.23,14.71,14.71,0,0,1,2.68,4.83,18.59,18.59,0,0,1,.94,6v.6a3.61,3.61,0,0,1-.06.54H528.19a12.68,12.68,0,0,0,1.2,4.83,12.52,12.52,0,0,0,2.58,3.58,10.61,10.61,0,0,0,3.52,2.25,11.38,11.38,0,0,0,4.15.77,11.86,11.86,0,0,0,5.81-1.31,17.11,17.11,0,0,0,4.21-3.26l1.94,1.71a20.31,20.31,0,0,1-5.06,4A14.31,14.31,0,0,1,539.53,234.11Zm9.91-16.62a16.57,16.57,0,0,0-.89-4.26,11.85,11.85,0,0,0-2-3.6,9.59,9.59,0,0,0-3.18-2.51,10.44,10.44,0,0,0-8.48-.09,10.19,10.19,0,0,0-3.29,2.37,12.86,12.86,0,0,0-2.32,3.6,13.45,13.45,0,0,0-1.09,4.48Z"/><path class="cls-2" d="M571.66,234.11a12.91,12.91,0,0,1-4.91-.89,10.39,10.39,0,0,1-3.68-2.48,10.5,10.5,0,0,1-2.29-3.8,14.5,14.5,0,0,1-.77-4.83V204.29h2.8V221.6a10.51,10.51,0,0,0,2.4,7.23,8.66,8.66,0,0,0,6.85,2.71,10.24,10.24,0,0,0,4-.77,9.85,9.85,0,0,0,3.23-2.14,9.73,9.73,0,0,0,2.14-3.29,11.14,11.14,0,0,0,.77-4.2V204.29H585v29.13h-2.8V228a13.59,13.59,0,0,1-4,4.34A11.07,11.07,0,0,1,571.66,234.11Z"/><path class="cls-2" d="M627.52,234.11a13.37,13.37,0,0,1-4-.57,12.69,12.69,0,0,1-3.29-1.54,14.75,14.75,0,0,1-2.63-2.23,20.56,20.56,0,0,1-2.08-2.63v6.28h-2.8v-41.7h2.8V210.8a20.25,20.25,0,0,1,2.11-2.74,14.43,14.43,0,0,1,2.66-2.29,13.59,13.59,0,0,1,3.26-1.57,12.48,12.48,0,0,1,4-.6,13.67,13.67,0,0,1,5.17,1,14,14,0,0,1,4.54,3,14.77,14.77,0,0,1,3.23,4.77,15.84,15.84,0,0,1,1.23,6.37v.11a15.83,15.83,0,0,1-1.23,6.37,15.11,15.11,0,0,1-3.23,4.8,14.18,14.18,0,0,1-4.54,3A13.36,13.36,0,0,1,627.52,234.11Zm-.26-2.68a11.73,11.73,0,0,0,4.49-.86,10.57,10.57,0,0,0,3.64-2.46,11.46,11.46,0,0,0,2.43-3.91,14.51,14.51,0,0,0,.89-5.23v-.11a14.17,14.17,0,0,0-.92-5.2,11.82,11.82,0,0,0-2.49-4,11.16,11.16,0,0,0-8-3.4,11.24,11.24,0,0,0-4.44.91,12,12,0,0,0-3.81,2.57,12.7,12.7,0,0,0-2.66,3.94,12.53,12.53,0,0,0-1,5.08v.11a12.73,12.73,0,0,0,1,5.11,12.11,12.11,0,0,0,6.47,6.48A11.22,11.22,0,0,0,627.27,231.42Z"/><path class="cls-2" d="M663.34,234.11a14.31,14.31,0,0,1-6-1.23,15.28,15.28,0,0,1-4.71-3.28,14.77,14.77,0,0,1-3.11-4.8,15.34,15.34,0,0,1-1.11-5.83v-.11a15.29,15.29,0,0,1,4.25-10.68,15.1,15.1,0,0,1,4.77-3.34,14.51,14.51,0,0,1,6-1.23,14.31,14.31,0,0,1,6,1.23,15.34,15.34,0,0,1,4.71,3.28,14.8,14.8,0,0,1,3.11,4.8,15.32,15.32,0,0,1,1.11,5.83v.11a15.3,15.3,0,0,1-4.26,10.68,15.07,15.07,0,0,1-4.77,3.34A14.51,14.51,0,0,1,663.34,234.11Zm.11-2.68a11.53,11.53,0,0,0,4.79-1,11.75,11.75,0,0,0,3.79-2.67,12.15,12.15,0,0,0,2.47-4,13.16,13.16,0,0,0,.89-4.83v-.11a13.15,13.15,0,0,0-.92-4.92,12.3,12.3,0,0,0-2.55-4,11.84,11.84,0,0,0-3.84-2.67,11.7,11.7,0,0,0-4.73-1,11.54,11.54,0,0,0-4.79,1,11.79,11.79,0,0,0-3.79,2.67,12.16,12.16,0,0,0-2.47,4,13.15,13.15,0,0,0-.89,4.83v.11a13.17,13.17,0,0,0,.92,4.92,12.32,12.32,0,0,0,2.55,4,11.86,11.86,0,0,0,3.85,2.67A11.68,11.68,0,0,0,663.45,231.42Z"/><path class="cls-2" d="M687.38,191.72h2.8v41.7h-2.8Z"/><path class="cls-2" d="M710.63,234a18.16,18.16,0,0,1-6.4-1.2,19.75,19.75,0,0,1-5.54-3.09l1.66-2.23a20,20,0,0,0,5,2.83,15.12,15.12,0,0,0,5.43,1,8.25,8.25,0,0,0,5-1.48,4.75,4.75,0,0,0,2-4v-.11a3.73,3.73,0,0,0-.63-2.17,5.8,5.8,0,0,0-1.71-1.6,11.21,11.21,0,0,0-2.46-1.14q-1.37-.46-2.91-.91-1.77-.51-3.57-1.08a14.26,14.26,0,0,1-3.23-1.45,7.5,7.5,0,0,1-2.31-2.19,5.67,5.67,0,0,1-.89-3.25v-.11a7.18,7.18,0,0,1,.71-3.22,7.92,7.92,0,0,1,2-2.54,9,9,0,0,1,3-1.68,12,12,0,0,1,3.88-.6,17.86,17.86,0,0,1,5.4.88,18.31,18.31,0,0,1,4.94,2.38l-1.49,2.34a19.35,19.35,0,0,0-4.31-2.11,14.19,14.19,0,0,0-4.66-.8,7.46,7.46,0,0,0-4.83,1.45,4.48,4.48,0,0,0-1.8,3.62v.11a3.3,3.3,0,0,0,.69,2.08,5.91,5.91,0,0,0,1.8,1.51,14.43,14.43,0,0,0,2.6,1.11q1.48.48,3,.94,1.77.51,3.48,1.11a13,13,0,0,1,3.08,1.54,7.76,7.76,0,0,1,2.2,2.25,6,6,0,0,1,.83,3.25v.11a7.73,7.73,0,0,1-2.91,6.18,9.94,9.94,0,0,1-3.2,1.71A12.65,12.65,0,0,1,710.63,234Z"/><path class="cls-2" d="M742.51,234.11a14.31,14.31,0,0,1-6-1.23,15.28,15.28,0,0,1-4.71-3.28,14.77,14.77,0,0,1-3.11-4.8A15.34,15.34,0,0,1,727.6,219v-.11a15.29,15.29,0,0,1,4.25-10.68,15.1,15.1,0,0,1,4.77-3.34,14.51,14.51,0,0,1,6-1.23,14.31,14.31,0,0,1,6,1.23,15.34,15.34,0,0,1,4.71,3.28,14.8,14.8,0,0,1,3.11,4.8,15.32,15.32,0,0,1,1.11,5.83v.11a15.3,15.3,0,0,1-4.26,10.68,15.07,15.07,0,0,1-4.77,3.34A14.51,14.51,0,0,1,742.51,234.11Zm.11-2.68a11.53,11.53,0,0,0,4.79-1,11.75,11.75,0,0,0,3.79-2.67,12.15,12.15,0,0,0,2.47-4,13.16,13.16,0,0,0,.89-4.83v-.11a13.15,13.15,0,0,0-.92-4.92,12.3,12.3,0,0,0-2.55-4,11.84,11.84,0,0,0-3.84-2.67,11.7,11.7,0,0,0-4.73-1,11.54,11.54,0,0,0-4.79,1,11.79,11.79,0,0,0-3.79,2.67,12.16,12.16,0,0,0-2.47,4,13.15,13.15,0,0,0-.89,4.83v.11a13.17,13.17,0,0,0,.92,4.92,12.32,12.32,0,0,0,2.55,4,11.86,11.86,0,0,0,3.85,2.67A11.68,11.68,0,0,0,742.62,231.42Z"/><path class="cls-2" d="M766.15,228.57h3.77v4.86h-3.77Zm.23-31.13v-4h3.31v4L768.84,223h-1.6Z"/></g></g></svg>