<?xml version="1.0" encoding="utf-8"?>
<!-- Generator: Adobe Illustrator 21.0.2, SVG Export Plug-In . SVG Version: 6.00 Build 0)  -->
<svg version="1.1" id="Layer_1" xmlns="http://www.w3.org/2000/svg" xmlns:xlink="http://www.w3.org/1999/xlink" x="0px" y="0px"
	 viewBox="0 0 1422.2 292" style="enable-background:new 0 0 1422.2 292;" xml:space="preserve">
<style type="text/css">
	.st0{fill:#2196F3;}
	.st1{fill:#FFFFFF;}
</style>
<g>
	<g>
		<path class="st1" d="M300,89.9L183.2,205.4c-1.9,1.9-4.3,2.5-6.8,2.3c-2.5,0.2-4.9-0.4-6.8-2.3L101,137.4c-3.1-3.1-3.1-8.2,0-11.3
			l20.6-20.4c3.3-3.1,8.4-3.1,11.5,0l43,42.4L270.9,50c-23.5-22.1-55.2-35.6-90-35.6C108.3,14.4,49.4,73.3,49.4,146
			c0,72.7,58.9,131.6,131.6,131.6c72.7,0,131.6-58.9,131.6-131.6C312.5,125.9,308.1,106.9,300,89.9z"/>
	</g>
	<g>
		<path class="st1" d="M365.7,121.6h-16v-15.1h16V96.5c0-13.2,3.4-23.1,10.1-29.9c6-6,14.3-9,24.9-9c4,0,7.5,0.2,10.4,0.7
			c2.9,0.5,5.8,1.2,8.7,2.2v15.1c-3.1-0.9-6-1.6-8.5-2.1c-2.5-0.5-5.3-0.8-8.3-0.8c-13.5,0-20.2,8.2-20.2,24.7v9.4h36.9v14.8H383
			v100.9h-17.3V121.6z M442.1,61.8h19.8v19.1h-19.8V61.8z M443.5,106.3h17.1v116.2h-17.1V106.3z"/>
		<path class="st1" d="M594.3,199.1c-2.4,3.4-5.1,6.7-8,9.9c-2.9,3.1-6.2,5.9-9.8,8.3c-3.6,2.4-7.6,4.3-12,5.6
			c-4.4,1.3-9.3,2-14.7,2c-7,0-13.9-1.3-20.4-4c-6.6-2.7-12.5-6.6-17.8-11.8c-5.2-5.2-9.4-11.5-12.6-18.9
			c-3.1-7.4-4.7-15.9-4.7-25.5v-0.4c0-9.4,1.6-17.9,4.7-25.4c3.1-7.5,7.3-13.8,12.6-19c5.2-5.2,11.2-9.1,17.8-11.9
			c6.6-2.8,13.4-4.2,20.4-4.2c5.4,0,10.3,0.7,14.8,2c4.5,1.3,8.5,3.1,12.1,5.4s6.9,4.9,9.8,7.9c2.9,3,5.5,6.1,7.8,9.4v-22.2h17.3
			v152.1h-17.3V199.1z M552.9,209.5c5.4,0,10.6-1.1,15.6-3.3c5-2.2,9.5-5.2,13.5-9.2c4-4,7.1-8.7,9.4-14.2
			c2.3-5.5,3.5-11.6,3.5-18.3v-0.4c0-6.7-1.2-12.8-3.5-18.3c-2.3-5.5-5.5-10.1-9.4-14c-4-3.9-8.5-6.9-13.5-9.1
			c-5-2.2-10.2-3.3-15.6-3.3c-5.7,0-11,1-16,3c-4.9,2-9.3,4.9-12.9,8.8c-3.7,3.8-6.6,8.5-8.8,14c-2.2,5.5-3.3,11.8-3.3,18.9v0.4
			c0,6.9,1.1,13.1,3.3,18.7c2.2,5.5,5.1,10.3,8.9,14.2c3.7,3.9,8.1,6.9,13,9C542.1,208.4,547.4,209.5,552.9,209.5z"/>
		<path class="st1" d="M692.9,225c-7,0-13.3-1.1-18.8-3.4c-5.5-2.2-10.1-5.4-13.9-9.6c-3.8-4.1-6.7-9-8.8-14.7c-2-5.7-3-12-3-18.9
			v-72.1h17.3v67.7c0,10.8,2.8,19.3,8.3,25.6c5.5,6.3,13.5,9.4,23.8,9.4c4.9,0,9.5-0.9,13.8-2.6c4.3-1.7,7.9-4.2,11-7.4
			c3.1-3.2,5.5-7.1,7.3-11.5c1.8-4.5,2.7-9.4,2.7-14.8v-66.4h17.1v116.2h-17.1v-20.2c-3.9,6.3-9,11.6-15.3,16.1
			C711.1,222.8,702.9,225,692.9,225z"/>
		<path class="st1" d="M799,171.5c0.6,6.1,2.1,11.6,4.5,16.4c2.4,4.8,5.5,8.8,9.2,12.1c3.7,3.3,7.9,5.8,12.6,7.5
			c4.6,1.7,9.5,2.6,14.6,2.6c8.1,0,15-1.5,20.8-4.5c5.8-3,11-7,15.8-11.9l10.8,9.7c-5.8,6.6-12.5,11.9-20,15.8c-7.5,4-16.8,6-27.9,6
			c-7.9,0-15.4-1.5-22.5-4.4c-7-2.9-13.2-7-18.4-12.4c-5.2-5.3-9.4-11.7-12.5-19.2c-3.1-7.5-4.6-15.7-4.6-24.7
			c0-8.4,1.4-16.3,4.2-23.7c2.8-7.4,6.6-13.9,11.6-19.3c4.9-5.5,10.8-9.8,17.6-12.9c6.8-3.1,14.3-4.7,22.4-4.7
			c8.5,0,16.2,1.6,22.9,4.8c6.7,3.2,12.4,7.6,17.1,13.1c4.6,5.5,8.2,12.1,10.6,19.5c2.4,7.5,3.6,15.5,3.6,24c0,0.8,0,1.6,0,2.6
			c0,1-0.1,2.1-0.2,3.5H799z M873.8,157.3c-0.4-5.2-1.6-10.2-3.4-14.9c-1.8-4.7-4.2-8.8-7.3-12.4c-3.1-3.6-6.8-6.4-11.2-8.5
			c-4.4-2.1-9.5-3.1-15.2-3.1c-4.9,0-9.6,1-13.9,2.9c-4.3,1.9-8.2,4.7-11.5,8.2c-3.3,3.5-6,7.6-8.2,12.4c-2.2,4.8-3.6,9.9-4.2,15.4
			H873.8z"/>
	</g>
	<g>
		<path class="st1" d="M948.2,224.5c-5.8,0-11.2-0.8-16.2-2.5s-9.3-4-12.9-7.2c-3.7-3.1-6.6-7-8.7-11.7c-2.1-4.6-3.1-10-3.1-16.2
			v-0.4c0-6.3,1.2-11.8,3.5-16.6c2.3-4.8,5.5-8.8,9.7-11.9c4.1-3.1,9.1-5.5,14.9-7.2c5.8-1.6,12.4-2.5,19.5-2.5
			c5.7,0,11.1,0.5,16.3,1.5c5.2,1,9.5,2.1,12.9,3.3v-2c0-6.3-2-11.2-6-14.6c-4-3.4-10.1-5.2-18.3-5.2c-6.4,0-12.3,0.6-17.5,1.8
			c-5.2,1.2-10.6,2.8-16,4.9l-8.8-30.1c6.9-2.8,14.2-5.1,21.9-6.9c7.7-1.7,16.8-2.6,27.3-2.6c10.9,0,20.2,1.3,27.8,3.8
			c7.6,2.5,13.7,6.2,18.5,11c4.6,4.5,8,9.9,10,16.3c2,6.4,3,13.8,3,22.4v69.9h-42.2v-12.6c-4.2,4.6-9.2,8.4-14.9,11.1
			C963.2,223.1,956.3,224.5,948.2,224.5z M963.5,197.8c6.3,0,11.4-1.8,15.3-5.4c3.9-3.6,5.8-8.5,5.8-14.6v-5.6
			c-2.1-0.9-4.6-1.6-7.5-2.2c-2.9-0.6-6-0.9-9.1-0.9c-6.3,0-11.1,1.4-14.5,4.2c-3.4,2.8-5.1,6.4-5.1,10.9v0.4c0,4.2,1.4,7.5,4.3,9.8
			C955.5,196.6,959.1,197.8,963.5,197.8z"/>
		<path class="st1" d="M1043.7,193.7l56.2-59.7h-54.2v-33.7h110.8v28.2l-56.4,59.7h56.4v33.7h-112.8V193.7z"/>
		<path class="st1" d="M1215.1,224.5c-13.1,0-23.3-4-30.6-11.9c-7.3-7.9-11-18.9-11-32.8v-79.5h42.9v65.8c0,6.7,1.6,11.8,4.7,15.3
			c3.1,3.4,7.2,5.2,12.4,5.2c5,0,9.2-1.7,12.5-5.2c3.3-3.4,5-8.5,5-15.3v-65.8h42.9v121.6h-42.9v-16.6c-3.8,5.1-8.7,9.6-14.4,13.5
			C1230.9,222.6,1223.7,224.5,1215.1,224.5z"/>
		<path class="st1" d="M1317.8,57.8h42.9v164h-42.9V57.8z"/>
	</g>
</g>
</svg>
